<svg width="130" height="130" viewBox="0 0 130 130" fill="none" xmlns="http://www.w3.org/2000/svg">
<circle cx="65" cy="65" r="65" fill="#F1C46E"/>
<circle cx="65" cy="65" r="59" stroke="white" stroke-width="4"/>
<path d="M29.5015 58.5322C28.1379 58.5322 27.4561 57.9544 27.4561 56.7988V53.332C27.4561 52.1764 28.1379 51.5986 29.5015 51.5986H31.4429V46.7451C31.4429 42.4925 32.6562 39.6613 35.083 38.2515C37.5098 36.8416 40.3988 36.1367 43.75 36.1367C45.3447 36.1367 46.7083 36.2292 47.8408 36.4141C48.9964 36.599 50.0133 36.8301 50.8916 37.1074C51.7236 37.3848 52.0241 37.9626 51.793 38.8408L50.7529 42.7583C50.5449 43.521 50.0133 43.7521 49.1582 43.4517C48.6497 43.2668 47.9333 43.1396 47.0088 43.0703C46.1074 42.9779 45.391 42.9316 44.8594 42.9316C43.1722 42.9316 42.1322 43.521 41.7393 44.6997C41.3464 45.8784 41.1499 47.7158 41.1499 50.2119V51.5986H45.7261C47.0897 51.5986 47.7715 52.1764 47.7715 53.332V56.7988C47.7715 57.9544 47.0897 58.5322 45.7261 58.5322H41.1499V85.9199C41.1499 87.3066 40.4565 88 39.0698 88H33.5229C32.1362 88 31.4429 87.3066 31.4429 85.9199V58.5322H29.5015ZM56.4385 88C55.0518 88 54.3584 87.3066 54.3584 85.9199V53.6787C54.3584 52.292 55.0518 51.5986 56.4385 51.5986H61.916C63.3027 51.5986 63.9961 52.292 63.9961 53.6787V55.6895H64.1348C64.805 54.2103 65.9375 53.0431 67.5322 52.188C69.127 51.3328 70.6177 50.9053 72.0044 50.9053C74.7778 50.9053 76.9272 51.5524 78.4526 52.8467C80.0011 54.141 81.0643 55.5854 81.6421 57.1802H81.7808C83.7915 54.5685 85.6058 52.8698 87.2236 52.084C88.8646 51.2982 90.9562 50.9053 93.4985 50.9053C96.9191 50.9053 99.7965 52.0378 102.131 54.3027C104.488 56.5677 105.667 60.7048 105.667 66.7139V85.9199C105.667 87.3066 104.974 88 103.587 88H98.04C96.6533 88 95.96 87.3066 95.96 85.9199V69.21C95.96 64.1715 95.6133 60.9937 94.9199 59.6763C94.2497 58.3589 93.0479 57.7002 91.3145 57.7002C89.6966 57.7002 88.2174 58.6478 86.877 60.543C85.5365 62.4382 84.8662 66.3441 84.8662 72.2607V85.9199C84.8662 87.3066 84.1729 88 82.7861 88H77.2393C75.8525 88 75.1592 87.3066 75.1592 85.9199V69.21C75.1592 64.1715 74.8125 60.9937 74.1191 59.6763C73.4489 58.3589 72.2471 57.7002 70.5137 57.7002C68.8958 57.7002 67.4167 58.6478 66.0762 60.543C64.7357 62.415 64.0654 66.321 64.0654 72.2607V85.9199C64.0654 87.3066 63.3721 88 61.9854 88H56.4385Z" fill="#FBF8F8"/>
</svg>
