<svg id="visual" viewBox="0 0 900 600" width="900" height="600" xmlns="http://www.w3.org/2000/svg" xmlns:xlink="http://www.w3.org/1999/xlink" version="1.1"><path d="M0 55L13.7 58C27.3 61 54.7 67 82 77C109.3 87 136.7 101 163.8 111C191 121 218 127 245.2 123C272.3 119 299.7 105 327 100C354.3 95 381.7 99 409 94C436.3 89 463.7 75 491 73C518.3 71 545.7 81 573 88C600.3 95 627.7 99 654.8 95C682 91 709 79 736.2 74C763.3 69 790.7 71 818 67C845.3 63 872.7 53 886.3 48L900 43L900 0L886.3 0C872.7 0 845.3 0 818 0C790.7 0 763.3 0 736.2 0C709 0 682 0 654.8 0C627.7 0 600.3 0 573 0C545.7 0 518.3 0 491 0C463.7 0 436.3 0 409 0C381.7 0 354.3 0 327 0C299.7 0 272.3 0 245.2 0C218 0 191 0 163.8 0C136.7 0 109.3 0 82 0C54.7 0 27.3 0 13.7 0L0 0Z" fill="#f7e7a4"></path><path d="M0 247L13.7 259C27.3 271 54.7 295 82 285C109.3 275 136.7 231 163.8 221C191 211 218 235 245.2 253C272.3 271 299.7 283 327 299C354.3 315 381.7 335 409 327C436.3 319 463.7 283 491 271C518.3 259 545.7 271 573 276C600.3 281 627.7 279 654.8 268C682 257 709 237 736.2 238C763.3 239 790.7 261 818 250C845.3 239 872.7 195 886.3 173L900 151L900 41L886.3 46C872.7 51 845.3 61 818 65C790.7 69 763.3 67 736.2 72C709 77 682 89 654.8 93C627.7 97 600.3 93 573 86C545.7 79 518.3 69 491 71C463.7 73 436.3 87 409 92C381.7 97 354.3 93 327 98C299.7 103 272.3 117 245.2 121C218 125 191 119 163.8 109C136.7 99 109.3 85 82 75C54.7 65 27.3 59 13.7 56L0 53Z" fill="#f8ebb1"></path><path d="M0 301L13.7 312C27.3 323 54.7 345 82 343C109.3 341 136.7 315 163.8 304C191 293 218 297 245.2 310C272.3 323 299.7 345 327 364C354.3 383 381.7 399 409 393C436.3 387 463.7 359 491 353C518.3 347 545.7 363 573 369C600.3 375 627.7 371 654.8 354C682 337 709 307 736.2 307C763.3 307 790.7 337 818 326C845.3 315 872.7 263 886.3 237L900 211L900 149L886.3 171C872.7 193 845.3 237 818 248C790.7 259 763.3 237 736.2 236C709 235 682 255 654.8 266C627.7 277 600.3 279 573 274C545.7 269 518.3 257 491 269C463.7 281 436.3 317 409 325C381.7 333 354.3 313 327 297C299.7 281 272.3 269 245.2 251C218 233 191 209 163.8 219C136.7 229 109.3 273 82 283C54.7 293 27.3 269 13.7 257L0 245Z" fill="#f9eebe"></path><path d="M0 445L13.7 457C27.3 469 54.7 493 82 488C109.3 483 136.7 449 163.8 421C191 393 218 371 245.2 388C272.3 405 299.7 461 327 483C354.3 505 381.7 493 409 473C436.3 453 463.7 425 491 419C518.3 413 545.7 429 573 439C600.3 449 627.7 453 654.8 443C682 433 709 409 736.2 418C763.3 427 790.7 469 818 460C845.3 451 872.7 391 886.3 361L900 331L900 209L886.3 235C872.7 261 845.3 313 818 324C790.7 335 763.3 305 736.2 305C709 305 682 335 654.8 352C627.7 369 600.3 373 573 367C545.7 361 518.3 345 491 351C463.7 357 436.3 385 409 391C381.7 397 354.3 381 327 362C299.7 343 272.3 321 245.2 308C218 295 191 291 163.8 302C136.7 313 109.3 339 82 341C54.7 343 27.3 321 13.7 310L0 299Z" fill="#f9f1c9"></path><path d="M0 601L13.7 601C27.3 601 54.7 601 82 601C109.3 601 136.7 601 163.8 601C191 601 218 601 245.2 601C272.3 601 299.7 601 327 601C354.3 601 381.7 601 409 601C436.3 601 463.7 601 491 601C518.3 601 545.7 601 573 601C600.3 601 627.7 601 654.8 601C682 601 709 601 736.2 601C763.3 601 790.7 601 818 601C845.3 601 872.7 601 886.3 601L900 601L900 329L886.3 359C872.7 389 845.3 449 818 458C790.7 467 763.3 425 736.2 416C709 407 682 431 654.8 441C627.7 451 600.3 447 573 437C545.7 427 518.3 411 491 417C463.7 423 436.3 451 409 471C381.7 491 354.3 503 327 481C299.7 459 272.3 403 245.2 386C218 369 191 391 163.8 419C136.7 447 109.3 481 82 486C54.7 491 27.3 467 13.7 455L0 443Z" fill="#f9f4d3"></path></svg>