<svg id="visual" viewBox="0 0 900 600" width="900" height="600" xmlns="http://www.w3.org/2000/svg" xmlns:xlink="http://www.w3.org/1999/xlink" version="1.1"><path d="M0 103L13.7 96C27.3 89 54.7 75 82 75C109.3 75 136.7 89 163.8 91C191 93 218 83 245.2 91C272.3 99 299.7 125 327 121C354.3 117 381.7 83 409 74C436.3 65 463.7 81 491 84C518.3 87 545.7 77 573 78C600.3 79 627.7 91 654.8 98C682 105 709 107 736.2 108C763.3 109 790.7 109 818 111C845.3 113 872.7 117 886.3 119L900 121L900 0L886.3 0C872.7 0 845.3 0 818 0C790.7 0 763.3 0 736.2 0C709 0 682 0 654.8 0C627.7 0 600.3 0 573 0C545.7 0 518.3 0 491 0C463.7 0 436.3 0 409 0C381.7 0 354.3 0 327 0C299.7 0 272.3 0 245.2 0C218 0 191 0 163.8 0C136.7 0 109.3 0 82 0C54.7 0 27.3 0 13.7 0L0 0Z" fill="#3c3d58"></path><path d="M0 229L13.7 221C27.3 213 54.7 197 82 191C109.3 185 136.7 189 163.8 192C191 195 218 197 245.2 198C272.3 199 299.7 199 327 187C354.3 175 381.7 151 409 151C436.3 151 463.7 175 491 181C518.3 187 545.7 175 573 167C600.3 159 627.7 155 654.8 164C682 173 709 195 736.2 195C763.3 195 790.7 173 818 166C845.3 159 872.7 167 886.3 171L900 175L900 119L886.3 117C872.7 115 845.3 111 818 109C790.7 107 763.3 107 736.2 106C709 105 682 103 654.8 96C627.7 89 600.3 77 573 76C545.7 75 518.3 85 491 82C463.7 79 436.3 63 409 72C381.7 81 354.3 115 327 119C299.7 123 272.3 97 245.2 89C218 81 191 91 163.8 89C136.7 87 109.3 73 82 73C54.7 73 27.3 87 13.7 94L0 101Z" fill="#2c2d44"></path><path d="M0 331L13.7 343C27.3 355 54.7 379 82 376C109.3 373 136.7 343 163.8 340C191 337 218 361 245.2 357C272.3 353 299.7 321 327 314C354.3 307 381.7 325 409 327C436.3 329 463.7 315 491 313C518.3 311 545.7 321 573 340C600.3 359 627.7 387 654.8 388C682 389 709 363 736.2 344C763.3 325 790.7 313 818 310C845.3 307 872.7 313 886.3 316L900 319L900 173L886.3 169C872.7 165 845.3 157 818 164C790.7 171 763.3 193 736.2 193C709 193 682 171 654.8 162C627.7 153 600.3 157 573 165C545.7 173 518.3 185 491 179C463.7 173 436.3 149 409 149C381.7 149 354.3 173 327 185C299.7 197 272.3 197 245.2 196C218 195 191 193 163.8 190C136.7 187 109.3 183 82 189C54.7 195 27.3 211 13.7 219L0 227Z" fill="#1d1e30"></path><path d="M0 391L13.7 405C27.3 419 54.7 447 82 448C109.3 449 136.7 423 163.8 414C191 405 218 413 245.2 405C272.3 397 299.7 373 327 377C354.3 381 381.7 413 409 420C436.3 427 463.7 409 491 403C518.3 397 545.7 403 573 420C600.3 437 627.7 465 654.8 465C682 465 709 437 736.2 422C763.3 407 790.7 405 818 403C845.3 401 872.7 399 886.3 398L900 397L900 317L886.3 314C872.7 311 845.3 305 818 308C790.7 311 763.3 323 736.2 342C709 361 682 387 654.8 386C627.7 385 600.3 357 573 338C545.7 319 518.3 309 491 311C463.7 313 436.3 327 409 325C381.7 323 354.3 305 327 312C299.7 319 272.3 351 245.2 355C218 359 191 335 163.8 338C136.7 341 109.3 371 82 374C54.7 377 27.3 353 13.7 341L0 329Z" fill="#191b2a"></path><path d="M0 601L13.7 601C27.3 601 54.7 601 82 601C109.3 601 136.7 601 163.8 601C191 601 218 601 245.2 601C272.3 601 299.7 601 327 601C354.3 601 381.7 601 409 601C436.3 601 463.7 601 491 601C518.3 601 545.7 601 573 601C600.3 601 627.7 601 654.8 601C682 601 709 601 736.2 601C763.3 601 790.7 601 818 601C845.3 601 872.7 601 886.3 601L900 601L900 395L886.3 396C872.7 397 845.3 399 818 401C790.7 403 763.3 405 736.2 420C709 435 682 463 654.8 463C627.7 463 600.3 435 573 418C545.7 401 518.3 395 491 401C463.7 407 436.3 425 409 418C381.7 411 354.3 379 327 375C299.7 371 272.3 395 245.2 403C218 411 191 403 163.8 412C136.7 421 109.3 447 82 446C54.7 445 27.3 417 13.7 403L0 389Z" fill="#161825"></path></svg>